# xmcd CD database file generated by Grip 3.2.0
# 
# Track frame offsets:
#       150
#       23260
#       35900
#       50590
#       68582
#       85854
#       102185
#       116997
#       136245
#       151387
#       166722
#       182705
#       197597
#       208052
# 
# Disc length: 2936 seconds
# 
# Revision: 2
# Processed by: cddbd v1.5.1PL0 Copyright (c) Steve Scherf et al.
# Submitted via: Grip 3.2.0
# 
DISCID=b70b760e
DTITLE=Leila Pinheiro - Catavento e Girassol
DYEAR=1996
DGENRE=Blues
TTITLE0=Catavento e girassol
TTITLE1=Canibaile
TTITLE2=O côco do côco
TTITLE3=Neblina e flâmulas
TTITLE4=Valsa pra Leila
TTITLE5=Chá de panela
TTITLE6=Baião de Lacan
TTITLE7=Pra quem quiser me visitar
TTITLE8=Sambade um breque
TTITLE9=Exasperada
TTITLE10=Cordas
TTITLE11=Exílio e paraíso
TTITLE12=Luas de subúrbio
TTITLE13=Madeira de sangue
EXTD=
EXTT0=
EXTT1=
EXTT2=
EXTT3=
EXTT4=
EXTT5=
EXTT6=
EXTT7=
EXTT8=
EXTT9=
EXTT10=
EXTT11=
EXTT12=
EXTT13=
PLAYORDER=
